<?xml version="1.0" standalone="no"?>
<!DOCTYPE svg PUBLIC "-//W3C//DTD SVG 20010904//EN"
 "http://www.w3.org/TR/2001/REC-SVG-20010904/DTD/svg10.dtd">
<svg version="1.0" xmlns="http://www.w3.org/2000/svg"
 width="2000.000000pt" height="2000.000000pt" viewBox="0 0 2000.000000 2000.000000"
 preserveAspectRatio="xMidYMid meet">

<g transform="translate(0.000000,2000.000000) scale(0.100000,-0.100000)"
fill="#ff8150" stroke="none">
<path d="M11075 18534 c-188 -36 -694 -132 -865 -164 -373 -70 -803 -150
-1090 -205 -102 -19 -245 -46 -319 -60 -74 -14 -252 -48 -395 -75 -507 -96
-644 -122 -881 -166 -132 -25 -323 -60 -425 -80 -448 -84 -558 -105 -765 -144
-121 -23 -287 -54 -370 -70 -379 -72 -485 -93 -555 -105 -41 -8 -280 -52 -530
-100 -250 -47 -525 -99 -610 -115 -328 -61 -773 -145 -1090 -205 -102 -19
-243 -46 -315 -59 -71 -14 -263 -50 -425 -81 -162 -31 -329 -62 -370 -70 -41
-7 -232 -43 -425 -79 -192 -37 -399 -76 -460 -87 -60 -11 -118 -23 -128 -25
-16 -5 -17 -328 -15 -6642 l3 -6636 40 -8 c22 -5 100 -20 174 -34 74 -13 254
-47 400 -75 146 -28 300 -57 341 -64 69 -13 570 -107 1196 -225 143 -27 321
-61 395 -75 74 -14 217 -41 319 -60 718 -136 1153 -218 1460 -275 85 -16 274
-51 420 -79 146 -28 349 -66 452 -86 104 -19 272 -51 375 -71 104 -19 247 -46
318 -60 72 -13 189 -35 260 -48 72 -14 285 -54 475 -90 305 -58 1136 -214
1495 -281 72 -14 213 -41 315 -60 102 -19 244 -46 315 -59 72 -14 263 -50 425
-81 296 -56 443 -84 817 -153 l203 -38 2 1850 3 1851 3565 5 3565 5 88 32
c111 40 184 81 270 151 131 106 234 269 280 442 l22 85 0 4140 0 4140 -26 96
c-79 284 -269 482 -564 586 l-80 28 -3560 5 -3560 5 -3 1848 -2 1847 -23 -1
c-12 -1 -76 -12 -142 -25z m7405 -4421 l0 -178 -333 -266 c-182 -146 -939
-753 -1682 -1349 -742 -596 -1622 -1302 -1955 -1569 -333 -267 -731 -586 -884
-709 -242 -195 -281 -223 -297 -214 -10 7 -389 312 -841 678 -453 367 -919
744 -1035 838 l-213 171 0 1388 0 1387 3620 0 3620 0 0 -177z m0 -4603 l0
-3790 -3620 0 -3620 0 0 2580 c0 1419 3 2580 7 2580 4 0 18 -11 32 -24 15 -13
289 -236 611 -497 322 -260 748 -605 947 -766 200 -162 382 -303 405 -313 60
-27 140 -26 203 4 28 13 156 108 285 212 129 104 863 693 1630 1309 1987 1594
2465 1978 2805 2252 165 133 303 242 308 242 4 1 7 -1704 7 -3789z m-12090
3565 c416 -70 766 -252 1069 -556 471 -472 747 -1139 811 -1959 15 -183 15
-623 0 -800 -37 -458 -122 -822 -275 -1182 -141 -329 -318 -592 -564 -838
-303 -303 -609 -472 -1013 -560 -266 -58 -683 -51 -977 16 -397 91 -747 292
-1035 594 -321 338 -559 784 -676 1270 -133 551 -146 1244 -35 1846 99 537
305 1002 615 1384 140 172 354 366 520 472 284 180 623 292 992 328 134 13
455 5 568 -15z"/>
<path d="M5712 11956 c-338 -65 -583 -251 -776 -593 -269 -477 -351 -1288
-200 -1973 106 -480 352 -852 674 -1019 150 -78 338 -117 510 -106 276 17 474
106 661 295 256 259 411 665 459 1200 13 148 13 510 -1 665 -24 278 -80 553
-154 750 -158 421 -430 696 -764 772 -93 21 -318 26 -409 9z"/>
</g>
</svg>
